<?xml version="1.0" encoding="utf-8"?>
<!-- Generator: Adobe Illustrator 25.3.0, SVG Export Plug-In . SVG Version: 6.00 Build 0)  -->
<svg version="1.1" id="Ebene_1" xmlns="http://www.w3.org/2000/svg" xmlns:xlink="http://www.w3.org/1999/xlink" x="0px" y="0px"
	 viewBox="0 0 80.8 42.8" style="enable-background:new 0 0 80.8 42.8;" xml:space="preserve">
<style type="text/css">
	.st0{fill:#F7AF39;}
</style>
<g>
	<g>
		<path class="st0" d="M25.8,1.7C25.4,1.1,25,0.5,24.5,0C18.7,3.6,13.5,8.1,9,13.3L3.2,8.8C2.1,9.6,1,10.6,0,11.6l10.5,10.7
			c0.1,0.1,0.2,0.1,0.3,0.1c0,0,0.1,0,0.1,0c0.1,0,0.3-0.1,0.3-0.3c1.7-4.3,7.3-13.4,14.5-20C25.8,2,25.8,1.9,25.8,1.7z M22.6,29.8
			c-0.6-0.6-1.3-1-2.1-1.3S18.9,28,17.9,28h-6.2v14.3h6.2c1.1,0,2-0.2,2.9-0.5c0.8-0.4,1.5-0.9,2-1.5c0.5-0.6,0.9-1.4,1.2-2.3
			c0.3-0.9,0.4-1.8,0.4-2.9c0-1.2-0.2-2.2-0.5-3.1C23.6,31.1,23.2,30.4,22.6,29.8z M21,37.4c-0.2,0.5-0.5,1-0.8,1.3
			c-0.3,0.3-0.7,0.6-1.1,0.7c-0.4,0.1-0.9,0.2-1.3,0.2h-2.8v-9h2.2c0.8,0,1.4,0.1,2,0.3c0.5,0.2,1,0.5,1.3,0.9
			c0.3,0.4,0.5,0.9,0.7,1.5s0.2,1.2,0.2,2C21.3,36.2,21.2,36.9,21,37.4z M36,34.9c-0.5-0.3-0.9-0.5-1.4-0.7
			c-0.5-0.1-0.8-0.2-1.1-0.3c-0.9-0.2-1.6-0.4-2.2-0.6s-1-0.3-1.3-0.4c-0.3-0.1-0.5-0.3-0.6-0.5c-0.1-0.2-0.2-0.4-0.2-0.7
			c0-0.3,0.1-0.6,0.2-0.8c0.1-0.2,0.3-0.4,0.5-0.5c0.2-0.1,0.4-0.2,0.7-0.3c0.3-0.1,0.5-0.1,0.8-0.1c0.4,0,0.7,0,1.1,0.1
			c0.3,0.1,0.6,0.2,0.9,0.3c0.3,0.2,0.5,0.4,0.6,0.7s0.2,0.6,0.3,1.1h3c0-0.8-0.2-1.5-0.5-2.1s-0.7-1.1-1.3-1.4
			c-0.5-0.4-1.1-0.6-1.8-0.8c-0.7-0.2-1.4-0.2-2.2-0.2c-0.6,0-1.3,0.1-1.9,0.3c-0.6,0.2-1.2,0.4-1.7,0.8c-0.5,0.4-0.9,0.8-1.2,1.3
			c-0.3,0.5-0.5,1.2-0.5,1.9c0,0.7,0.1,1.2,0.4,1.7c0.2,0.5,0.6,0.8,1,1.1c0.4,0.3,0.9,0.6,1.4,0.8c0.5,0.2,1,0.4,1.6,0.5
			c0.5,0.1,1,0.3,1.5,0.4s1,0.3,1.4,0.4s0.7,0.4,1,0.6c0.2,0.2,0.4,0.6,0.4,0.9c0,0.4-0.1,0.7-0.3,0.9c-0.2,0.2-0.4,0.4-0.7,0.5
			c-0.3,0.1-0.6,0.2-0.9,0.3c-0.3,0-0.6,0.1-0.9,0.1c-0.4,0-0.8-0.1-1.2-0.2s-0.7-0.3-1-0.5c-0.3-0.2-0.5-0.5-0.7-0.8
			c-0.2-0.3-0.3-0.7-0.3-1.2h-3c0,0.9,0.1,1.6,0.5,2.3c0.3,0.6,0.8,1.2,1.4,1.6c0.6,0.4,1.2,0.7,2,0.9c0.7,0.2,1.5,0.3,2.3,0.3
			c1,0,1.8-0.1,2.6-0.3c0.7-0.2,1.4-0.5,1.9-1c0.5-0.4,0.9-0.9,1.1-1.5c0.3-0.6,0.4-1.2,0.4-1.8c0-0.8-0.2-1.5-0.5-2
			C36.9,35.6,36.5,35.2,36,34.9z M46.2,36.9h3.2c-0.1,1-0.4,1.8-1,2.3C47.8,39.8,47,40,46,40c-0.7,0-1.3-0.1-1.8-0.4
			c-0.5-0.3-0.9-0.6-1.2-1.1s-0.5-1-0.7-1.5c-0.1-0.6-0.2-1.2-0.2-1.8c0-0.6,0.1-1.2,0.2-1.8c0.1-0.6,0.4-1.1,0.7-1.6
			c0.3-0.5,0.7-0.8,1.2-1.1c0.5-0.3,1.1-0.4,1.8-0.4c0.8,0,1.4,0.2,1.9,0.6c0.5,0.4,0.9,1,1.1,1.8h3c-0.1-0.8-0.3-1.5-0.7-2.2
			C51,30,50.5,29.4,50,29c-0.6-0.4-1.2-0.8-1.9-1c-0.7-0.2-1.4-0.3-2.1-0.3c-1.1,0-2.1,0.2-2.9,0.6c-0.9,0.4-1.6,0.9-2.2,1.6
			c-0.6,0.7-1.1,1.5-1.4,2.4c-0.3,0.9-0.5,1.9-0.5,3c0,1,0.2,2,0.5,2.9c0.3,0.9,0.8,1.7,1.4,2.3c0.6,0.7,1.3,1.2,2.2,1.6
			c0.9,0.4,1.9,0.6,2.9,0.6c0.7,0,1.4-0.1,2.1-0.4c0.7-0.3,1.3-0.8,1.9-1.5l0.3,1.6h2v-7.7h-6V36.9z M80.3,32.3
			c-0.3-0.9-0.8-1.7-1.4-2.4c-0.6-0.7-1.3-1.2-2.2-1.6c-0.9-0.4-1.9-0.6-3-0.6c-1.1,0-2.1,0.2-2.9,0.6c-0.9,0.4-1.6,0.9-2.2,1.6
			c-0.6,0.7-1.1,1.5-1.4,2.4c-0.3,0.9-0.5,1.9-0.5,3c0,1,0.2,2,0.5,2.9c0.3,0.9,0.8,1.7,1.4,2.3c0.6,0.7,1.3,1.2,2.2,1.6
			c0.9,0.4,1.9,0.6,2.9,0.6c1.1,0,2.1-0.2,3-0.6c0.9-0.4,1.6-0.9,2.2-1.6c0.6-0.7,1.1-1.4,1.4-2.3c0.3-0.9,0.5-1.9,0.5-2.9
			C80.8,34.2,80.6,33.2,80.3,32.3z M77.4,37c-0.1,0.6-0.4,1.1-0.7,1.5s-0.7,0.8-1.2,1.1c-0.5,0.3-1.1,0.4-1.8,0.4s-1.3-0.1-1.8-0.4
			c-0.5-0.3-0.9-0.6-1.2-1.1s-0.5-1-0.7-1.5c-0.1-0.6-0.2-1.2-0.2-1.8c0-0.6,0.1-1.2,0.2-1.8c0.1-0.6,0.4-1.1,0.7-1.6
			c0.3-0.5,0.7-0.8,1.2-1.1c0.5-0.3,1.1-0.4,1.8-0.4s1.3,0.1,1.8,0.4c0.5,0.3,0.9,0.6,1.2,1.1c0.3,0.5,0.5,1,0.7,1.6
			c0.1,0.6,0.2,1.2,0.2,1.8C77.6,35.8,77.6,36.4,77.4,37z M59.7,38.1L59.7,38.1l-3.2-10h-3.2l4.6,14.3h3.5L66.1,28h-3.2L59.7,38.1z"
			/>
	</g>
</g>
</svg>
