<?xml version="1.0" encoding="utf-8"?>
<!-- Generator: Adobe Illustrator 25.3.0, SVG Export Plug-In . SVG Version: 6.00 Build 0)  -->
<svg version="1.1" id="Ebene_1" xmlns="http://www.w3.org/2000/svg" xmlns:xlink="http://www.w3.org/1999/xlink" x="0px" y="0px"
	 viewBox="0 0 44.8 50.8" style="enable-background:new 0 0 44.8 50.8;" xml:space="preserve">
<style type="text/css">
	.st0{fill:#F7AF39;}
</style>
<g>
	<g>
		<path class="st0" d="M20.3,6.3l2.3,1.2c0.8,0.5,1.8,0.7,2.7,0.7c1.1,0,2.1-0.3,3-1C29.1,6.7,30,6.3,31,6c1.2-0.3,2.3-0.8,3.4-1.3
			c0.3,0.5,0.6,1,0.9,1.4c0.3,0.3,0.5,0.7,0.8,1c0.5,0.7,1,1.3,1.5,2c0.3,0.5,0.2,0.7,0.2,0.7c-0.2,0.5-0.3,0.9-0.6,1.4
			c-0.8,1.3-0.5,3,0.6,4.1c0.2,0.2,0.4,0.4,0.5,0.5c0.1,0.1,0.2,0.1,0.2,0.2c0.1,0.1,0.2,0.2,0.2,0.3c0.1,0.8,0.2,1.7,0.2,2.5
			c0.1,1.5,0.4,3,1,4.4c-0.9,0.1-1.9,0.2-2.8,0.4c-1.7,0.5-3.4,1.1-5,2.1l8.8,0c0.6,0,1.2-0.2,1.7-0.6c0.5-0.5,0.6-1.4,0.2-2
			c-0.9-1.3-1.3-2.8-1.3-4.4c0-1-0.1-2-0.3-3c-0.1-0.5-0.4-0.9-0.7-1.2c-0.3-0.3-0.6-0.6-0.9-0.9c-0.4-0.5-0.4-0.6-0.2-1.2
			c0.3-0.6,0.5-1.2,0.7-1.8c0.3-1,0-2.1-0.6-2.9c-0.7-1.1-1.6-2.1-2.3-3.1c-0.6-0.8-1-1.7-1.1-2.7c0-0.5-0.4-0.8-0.9-0.8
			c-0.2,0-0.4,0.1-0.5,0.2c-1.3,1.1-2.9,1.9-4.6,2.3c-1.2,0.3-2.4,0.8-3.4,1.5c-0.5,0.3-1,0.5-1.6,0.5c-0.5,0-1-0.2-1.5-0.4l1.4-2.6
			c-0.6,0.3-1.3,0.5-2,0.7c-0.3,0.1-0.6,0.1-0.9,0.1c-1,0-1.9-0.5-2.4-1.4c-0.7-1.3-2-2.1-3.5-2v2.6c0.8,0,1.1,0.3,1.2,0.6
			c0.6,1.2,1.7,2.1,2.9,2.5L20.3,6.3z M43.6,35.5c-0.2,0-0.4,0-0.5,0H24.5c-1.4,0-2.7,0-4.1,0c-0.1,0-0.2,0-0.3,0
			c-0.7,0.1-1.2,0.7-1.2,1.4c0,1.5,0,3,0,4.5c0,0,0,0.1,0,0.1c0,0.7,0.6,1.3,1.3,1.2c4.1,0,8.2,0,12.3,0h10.9c0,0,0.1,0,0.1,0
			c0.7,0,1.3-0.6,1.3-1.3c0-1.5,0-3.1,0-4.6c0,0,0,0,0,0C44.8,36.1,44.3,35.5,43.6,35.5z M21.4,38.7C21.4,38.7,21.4,38.7,21.4,38.7
			c-0.5,0-0.8-0.4-0.8-0.8c0,0,0,0,0,0c0-0.4,0.4-0.8,0.8-0.8h0c0.4,0,0.7,0.3,0.7,0.7C22.2,38.2,21.8,38.6,21.4,38.7z M41.2,41
			h-5.7l0-1.8h5.7V41z M12.7,43.2c-0.8,0-1.6,0.1-2.4,0.2c0.2-0.9,0.4-1.7,0.9-2.5c0.2-0.3,0.4-0.7,0.7-1c0.1-0.2,0.3-0.4,0.4-0.6
			l1.9-2.9l-3.3-1l-0.1,0c-0.2-0.1-0.3-0.1-0.5-0.2c-0.5-0.1-1-0.3-1.6-0.4c-1.1-0.3-2.1-0.5-3.2-0.8c-1.4-0.4-1.7-1.1-1.8-2
			c0-0.7,0-1.4,0.1-2.2C4.1,28.4,3.6,27,2.6,26c0.1-0.7,0.2-1.4,0.3-2.2l0-0.1c0.2-0.8,0.2-1.5,0.2-2.3c0.2-0.1,0.4-0.1,0.6-0.2
			c1.8-0.6,2.9-2.4,2.7-4.2c0-0.3-0.1-0.7-0.1-1c1.2-1.1,1.9-2.7,1.8-4.3c0-0.6,0-1.2,0.1-1.7c0.2,0.1,0.4,0.1,0.6,0.2
			c0.3,0.1,0.6,0.3,1,0.4c1.4,0.5,2.9,0,3.8-1.1c0.2-0.2,0.3-0.4,0.5-0.6l0.1-0.1l0,0c0.1-0.1,0.3-0.3,0.4-0.4
			c0.9-0.5,1.6-1.4,1.8-2.4c0.2-0.9,0-1.9-0.6-2.6c-0.1-0.2-0.2-0.2,0-0.5c0-0.1,0.1-0.2,0.1-0.3h0.5l0-2.6h0c-0.5,0-1,0-1.5,0h-2.4
			l0,0.2c0.1,0.1,0.3,0.2,0.4,0.3c0.4,0.3,0.7,0.8,0.5,1.3c0,0,0,0.1,0,0.1c-0.5,1-0.4,2.2,0.3,3.1c0.4,0.6,0.1,0.9-0.4,1.3
			c-0.4,0.3-0.7,0.6-1,0.9c-0.2,0.2-0.4,0.5-0.6,0.7c-0.2,0.2-0.4,0.4-0.7,0.4c-0.1,0-0.2,0-0.3-0.1C10.1,8,9.5,7.7,8.9,7.5
			C8.5,7.4,8.1,7.3,7.6,7.2H7.5C6.6,7.2,5.8,8,5.8,8.9c-0.1,0.9-0.2,1.8-0.2,2.7C5.7,12.9,5.1,14,4,14.5c0,0,0,0,0,0
			c-0.4,0.1-0.5,0.5-0.4,0.9c0.2,0.6,0.3,1.2,0.3,1.8C4,18,3.5,18.7,2.8,18.9c-0.5,0.2-1,0.3-1.5,0.4c-0.3,0.1-0.5,0.1-0.8,0.2
			c-0.5,0.2-0.6,0.4-0.3,0.8c0.5,0.9,0.5,2,0.2,3c-0.2,0.9-0.3,1.9-0.4,2.8c0,0.7,0.2,1.3,0.8,1.7c0.5,0.4,0.7,1,0.5,1.6
			c-0.1,0.9-0.1,1.7-0.1,2.6c0.1,2.1,1.5,3.8,3.6,4.3c1.6,0.5,3.2,0.8,4.8,1.2c0.2,0,0.3,0.1,0.5,0.2c-0.4,0.6-0.9,1.2-1.2,1.9
			c-0.8,1.5-1.3,3.2-1.4,5c-0.1,1.1,0.4,1.8,1.3,1.8c0.2,0,0.5-0.1,0.7-0.1c1-0.4,2.1-0.5,3.2-0.5c1.4,0,2.7,0.2,4.1,0.5
			c0.2,0,0.4,0.1,0.6,0.1v-2.6c0,0-0.1,0-0.1,0C15.7,43.4,14.2,43.2,12.7,43.2z M44.8,49.3c0-1.5,0-2.9,0-4.4c0,0,0-0.1,0-0.1
			c0-0.7-0.6-1.3-1.4-1.2c-7.7,0-15.4,0-23.1,0c0,0-0.1,0-0.1,0c-0.7,0-1.3,0.6-1.2,1.3c0,1.5,0,3.1,0,4.6c0,0,0,0,0,0
			c0,0.7,0.6,1.3,1.3,1.3c0.2,0,0.4,0,0.5,0h17.7l2.7,0c0.7,0,1.4,0,2,0c0.1,0,0.3,0,0.4,0C44.4,50.7,44.9,50,44.8,49.3z M22.2,46
			c0,0.4-0.4,0.8-0.8,0.7c0,0,0,0-0.1,0c-0.4,0-0.7-0.4-0.7-0.8c0-0.4,0.4-0.8,0.8-0.8h0c0,0,0,0,0,0C21.9,45.1,22.2,45.5,22.2,46
			C22.2,45.9,22.2,45.9,22.2,46z M41.2,49.1h-5.7v-1.9h5.7V49.1z M20.6,34.8h19.6l1.9,0c0.4,0,0.9,0,1.3,0c0,0,0,0,0.1,0
			c0.7,0,1.3-0.6,1.3-1.3c0-1.6,0-3.2,0-4.7c0-0.6-0.5-1.1-1.1-1.2c-0.2,0-0.5-0.1-0.7-0.1c-7.4,0-14.7,0-22.1,0c-0.2,0-0.3,0-0.5,0
			c-0.1,0-0.2,0-0.2,0c-0.8,0.1-1.3,0.8-1.2,1.5c0,1.4,0,2.8,0,4.1C19,34.3,19.4,34.8,20.6,34.8z M35.5,31.2h5.8V33h-5.8L35.5,31.2z
			 M21.4,29L21.4,29C21.4,29,21.4,29,21.4,29c0.5,0,0.8,0.3,0.8,0.8c0,0,0,0,0,0c0,0.4-0.4,0.8-0.8,0.8c-0.4,0-0.8-0.3-0.8-0.8
			S20.9,29.1,21.4,29z"/>
	</g>
</g>
</svg>
