<?xml version="1.0" encoding="utf-8"?>
<!-- Generator: Adobe Illustrator 25.3.0, SVG Export Plug-In . SVG Version: 6.00 Build 0)  -->
<svg version="1.1" id="Ebene_1" xmlns="http://www.w3.org/2000/svg" xmlns:xlink="http://www.w3.org/1999/xlink" x="0px" y="0px"
	 viewBox="0 0 37.4 50.8" style="enable-background:new 0 0 37.4 50.8;" xml:space="preserve">
<style type="text/css">
	.st0{fill:#F7AF39;}
</style>
<g>
	<g>
		<path class="st0" d="M36.7,6.1c-14.8,0-17.3-5.6-17.3-5.7C19.3,0.2,19,0,18.7,0h0c-0.3,0-0.6,0.2-0.7,0.5c0,0.1-2.6,5.7-17.3,5.7
			C0.3,6.1,0,6.4,0,6.9v25.1c0,10.3,17.6,18.1,18.4,18.5c0.2,0.1,0.4,0.1,0.6,0c0.8-0.3,18.4-8.2,18.4-18.5V6.8
			C37.4,6.4,37.1,6.1,36.7,6.1z M18.9,44.9c-0.1,0.1-0.3,0.1-0.5,0c-0.6-0.3-14.4-6.4-14.4-14.4V10.8c0-0.3,0.3-0.6,0.6-0.6
			c11.5,0,13.5-4.4,13.5-4.4c0.1-0.2,0.3-0.4,0.5-0.4h0c0.2,0,0.4,0.1,0.5,0.4c0,0,2,4.4,13.5,4.4c0.3,0,0.6,0.3,0.6,0.6v19.6l0,0
			C33.3,38.5,19.5,44.7,18.9,44.9z M30.3,14.9c-5.4,3.4-10.2,7.5-14.3,12.3L10.6,23c-1.1,0.8-2.1,1.6-3,2.6l9.7,9.9
			c0.1,0.1,0.2,0.1,0.3,0.1c0,0,0.1,0,0.1,0c0.1,0,0.2-0.1,0.3-0.2c1.6-4,6.8-12.4,13.4-18.5c0.1-0.1,0.2-0.3,0.1-0.4
			C31.1,15.9,30.7,15.4,30.3,14.9z"/>
	</g>
</g>
</svg>
