<?xml version="1.0" encoding="utf-8"?>
<!-- Generator: Adobe Illustrator 25.2.2, SVG Export Plug-In . SVG Version: 6.00 Build 0)  -->
<svg version="1.1" id="Ebene_1" xmlns="http://www.w3.org/2000/svg" xmlns:xlink="http://www.w3.org/1999/xlink" x="0px" y="0px"
	 viewBox="0 0 219.6 50.3" style="enable-background:new 0 0 219.6 50.3;" xml:space="preserve">
<style type="text/css">
	.st0{fill:#581316;}
	.st1{fill:#E38497;}
	.st2{fill:#DC913E;}
</style>
<path class="st0" d="M10.6,39.9c-0.1,0-0.3-0.1-0.4-0.2C3.5,31.1,0,24.4,0,19.6c0-4.7,1.7-9.3,4.8-12.9c0.2-0.2,0.5-0.2,0.7,0
	c0.2,0.2,0.2,0.5,0,0.7c-3,3.4-4.6,7.8-4.6,12.3c0,4.4,3.5,11.2,10.1,19.5c0.2,0.2,0.1,0.5-0.1,0.7C10.8,39.8,10.7,39.9,10.6,39.9z"
	/>
<path class="st1" d="M19.6,50.3L19.3,50c0,0-3.9-4-8.1-9.2c-0.2-0.2-0.1-0.5,0.1-0.7c0.2-0.2,0.5-0.1,0.7,0.1
	c3.5,4.3,6.7,7.7,7.7,8.8c1.8-1.9,10.9-11.5,15.7-20.2c0.1-0.2,0.4-0.3,0.6-0.2c0.2,0.1,0.3,0.4,0.2,0.6C30.7,39,20.1,49.9,20,50
	L19.6,50.3z"/>
<path class="st2" d="M19.6,0C14.3,0,9.5,1.9,5.9,5.6c-0.2,0.2-0.2,0.5,0,0.7c0.2,0.2,0.5,0.2,0.7,0c3.5-3.5,8-5.3,13.1-5.3
	c10.3,0,18.7,8.4,18.7,18.7c0,2.1-0.8,4.8-2.4,7.9c-0.1,0.2,0,0.5,0.2,0.6c0.1,0,0.1,0.1,0.2,0.1c0.2,0,0.3-0.1,0.4-0.3
	c1.7-3.3,2.5-6.1,2.5-8.3C39.3,8.8,30.5,0,19.6,0z"/>
<g>
	<g>
		<path d="M19.6,4.6c-8.2,0-14.9,6.7-14.9,14.9C4.7,24.1,9.6,32,16,39.3c0.5-0.2,1.1-0.4,1.7-0.5c0-0.2,0.1-0.4,0.1-0.7
			c-2-0.7-3.4-2.5-3.4-4.6c0-2.7,2.3-4.9,5.2-4.9s5.2,2.2,5.2,4.9c0,2.1-1.4,3.9-3.4,4.6c0,0.3,0,0.5,0.1,0.7
			c0.6,0.1,1.2,0.3,1.6,0.5c7.1-8.4,11.4-15,11.4-19.8C34.4,11.3,27.8,4.6,19.6,4.6z M19.6,26.1c-3,0-5.7-1.7-7-4.3
			c0-0.1-0.1-0.1-0.1-0.2c0,0,0,0,0,0c-0.5-1-0.8-2.2-0.8-3.4c0-0.4,0-0.8,0.1-1.2c0.4,0,0.9,0.1,1.3,0.1c1.5,0,2.9-0.3,4.2-0.7
			c-1.5,1.1-3,1.9-4,2.3c5.6-0.5,9-3.2,10.6-7c0,0,0,0,0,0c0.7,1.8,1.9,3.4,3.3,4.7c0.1,0.6,0.2,1.2,0.2,1.8
			C27.5,22.6,24,26.1,19.6,26.1z M108.4,36.8h0.7v-4.4h-0.7V36.8z M95.3,32.3c-0.6,0-1.1,0.2-1.4,0.6c-0.4,0.4-0.5,1-0.5,1.7
			c0,0.7,0.2,1.3,0.6,1.7s0.9,0.6,1.6,0.6c0.3,0,0.6,0,0.8-0.1c0.2,0,0.4-0.1,0.7-0.2V36c-0.5,0.2-0.9,0.3-1.4,0.3
			c-0.5,0-0.8-0.1-1.1-0.4c-0.2-0.3-0.4-0.7-0.4-1.2h3.1v-0.4c0-0.6-0.2-1.1-0.5-1.4S95.9,32.3,95.3,32.3z M94.1,34.1
			c0-0.4,0.2-0.7,0.4-1c0.2-0.2,0.5-0.3,0.9-0.3c0.4,0,0.6,0.1,0.8,0.3c0.2,0.2,0.3,0.5,0.3,1H94.1z M99.5,32.5
			c-0.2,0.2-0.4,0.4-0.6,0.7h0l-0.1-0.8h-0.6v4.4H99v-2.4c0-0.4,0.1-0.8,0.4-1.1s0.6-0.4,0.9-0.4c0.1,0,0.3,0,0.5,0.1l0.1-0.6
			c-0.2,0-0.3,0-0.5,0C100,32.3,99.8,32.3,99.5,32.5z M108.7,30.7c-0.1,0-0.2,0-0.3,0.1c-0.1,0.1-0.1,0.2-0.1,0.3
			c0,0.2,0,0.3,0.1,0.3c0.1,0.1,0.2,0.1,0.3,0.1c0.1,0,0.2,0,0.3-0.1s0.1-0.2,0.1-0.3c0-0.2,0-0.3-0.1-0.3
			C108.9,30.7,108.9,30.7,108.7,30.7z M141.6,22.9H135l6.4-9.5V12h-8.7v1.8h6.2l-6.4,9.5v1.4h9.1V22.9z M105.5,32.3
			c-0.6,0-1.1,0.2-1.4,0.6c-0.4,0.4-0.5,1-0.5,1.7c0,0.7,0.2,1.3,0.6,1.7s0.9,0.6,1.6,0.6c0.3,0,0.6,0,0.8-0.1
			c0.2,0,0.4-0.1,0.7-0.2V36c-0.5,0.2-0.9,0.3-1.4,0.3c-0.5,0-0.8-0.1-1.1-0.4c-0.2-0.3-0.4-0.7-0.4-1.2h3.1v-0.4
			c0-0.6-0.2-1.1-0.5-1.4S106,32.3,105.5,32.3z M104.2,34.1c0-0.4,0.2-0.7,0.4-1c0.2-0.2,0.5-0.3,0.9-0.3c0.4,0,0.6,0.1,0.8,0.3
			c0.2,0.2,0.3,0.5,0.3,1H104.2z M102.1,23H97v-4h4.8v-1.7H97v-3.5h5.1V12H95v12.7h7.2V23z M88.8,17.2H83V12h-2.1v12.7H83V19h5.9
			v5.7h2.1V12h-2.1V17.2z M60.5,32.5c-0.2,0.2-0.4,0.4-0.6,0.7h0l-0.1-0.8h-0.6v4.4h0.7v-2.4c0-0.4,0.1-0.8,0.4-1.1s0.6-0.4,0.9-0.4
			c0.1,0,0.3,0,0.5,0.1l0.1-0.6c-0.2,0-0.3,0-0.5,0C61,32.3,60.7,32.3,60.5,32.5z M101.7,36.8h0.7v-6.3h-0.7V36.8z M51.5,32.1v0.2
			l-0.8,0.2v0.3h0.8v3.9h0.7v-3.9h1.1v-0.5h-1.1v-0.3c0-0.4,0.1-0.6,0.2-0.8c0.1-0.2,0.3-0.3,0.6-0.3c0.2,0,0.4,0,0.7,0.1l0.2-0.5
			c-0.3-0.1-0.6-0.1-0.8-0.1C52,30.4,51.5,31,51.5,32.1z M59.3,19.8c-0.2-0.4-0.5-0.8-1-1.1s-1.1-0.7-2-1.1
			c-0.8-0.3-1.4-0.6-1.7-0.8c-0.3-0.2-0.5-0.4-0.7-0.7c-0.1-0.2-0.2-0.5-0.2-0.8c0-0.5,0.2-0.9,0.5-1.2c0.3-0.3,0.9-0.4,1.5-0.4
			c0.9,0,1.9,0.2,3,0.7l0.7-1.7c-1.2-0.5-2.4-0.8-3.6-0.8c-1.3,0-2.3,0.3-3,0.9c-0.8,0.6-1.1,1.4-1.1,2.5c0,0.8,0.2,1.6,0.7,2.2
			c0.5,0.6,1.3,1.1,2.4,1.6c1.1,0.5,1.9,0.8,2.2,1.2s0.5,0.7,0.5,1.2c0,0.5-0.2,0.9-0.6,1.3c-0.4,0.3-1,0.5-1.8,0.5
			c-0.6,0-1.2-0.1-1.8-0.2c-0.7-0.2-1.3-0.4-1.8-0.6v2c0.9,0.4,2.1,0.7,3.5,0.7c1.4,0,2.6-0.3,3.4-1c0.8-0.6,1.2-1.5,1.2-2.7
			C59.6,20.7,59.5,20.2,59.3,19.8z M57,31.4c0.1-0.1,0.1-0.2,0.1-0.3c0-0.1,0-0.2-0.1-0.3c-0.1-0.1-0.2-0.1-0.3-0.1s-0.2,0-0.3,0.1
			c-0.1,0.1-0.1,0.2-0.1,0.3c0,0.1,0,0.2,0.1,0.3c0.1,0.1,0.2,0.1,0.3,0.1S56.9,31.5,57,31.4z M67.4,34.3h1.3v1.8
			c-0.4,0.1-0.8,0.1-1.2,0.1c-0.8,0-1.3-0.2-1.7-0.6c-0.4-0.4-0.6-1-0.6-1.8c0-0.8,0.2-1.4,0.6-1.8c0.4-0.4,1-0.6,1.7-0.6
			c0.5,0,1,0.1,1.5,0.3l0.3-0.6c-0.5-0.2-1.1-0.3-1.8-0.3c-0.6,0-1.2,0.1-1.6,0.4c-0.5,0.2-0.8,0.6-1.1,1.1c-0.2,0.5-0.4,1-0.4,1.6
			c0,1,0.2,1.7,0.7,2.2c0.5,0.5,1.2,0.8,2.1,0.8c0.4,0,0.8,0,1.1-0.1c0.3-0.1,0.6-0.1,1-0.2v-2.9h-2V34.3z M64.8,12h-2.1v12.7h2.1
			V12z M72.5,32.3c-0.6,0-1.1,0.2-1.4,0.6c-0.4,0.4-0.5,1-0.5,1.7c0,0.7,0.2,1.3,0.6,1.7s0.9,0.6,1.6,0.6c0.3,0,0.6,0,0.8-0.1
			c0.2,0,0.4-0.1,0.7-0.2V36c-0.5,0.2-0.9,0.3-1.4,0.3c-0.5,0-0.8-0.1-1.1-0.4c-0.2-0.3-0.4-0.7-0.4-1.2h3.1v-0.4
			c0-0.6-0.2-1.1-0.5-1.4S73,32.3,72.5,32.3z M71.2,34.1c0-0.4,0.2-0.7,0.4-1c0.2-0.2,0.5-0.3,0.9-0.3c0.4,0,0.6,0.1,0.8,0.3
			c0.2,0.2,0.3,0.5,0.3,1H71.2z M77.4,24.3v-1.8c-0.5,0.2-1.1,0.3-1.6,0.4c-0.5,0.1-1,0.2-1.6,0.2c-1.2,0-2.2-0.4-2.9-1.2
			c-0.7-0.8-1-2-1-3.5c0-1.5,0.3-2.7,1-3.5c0.7-0.8,1.6-1.3,2.8-1.3c0.5,0,1,0.1,1.5,0.2s0.9,0.3,1.4,0.5l0.7-1.7
			c-1.1-0.5-2.3-0.8-3.6-0.8c-1.2,0-2.3,0.3-3.2,0.8c-0.9,0.5-1.6,1.3-2.1,2.3c-0.5,1-0.7,2.1-0.7,3.5c0,2.1,0.5,3.7,1.5,4.8
			c1,1.1,2.4,1.7,4.3,1.7C75.3,24.9,76.5,24.7,77.4,24.3z M86.5,36.8h0.7v-6.3h-0.7V36.8z M90,36.3c-0.2,0-0.4-0.1-0.5-0.2
			s-0.2-0.3-0.2-0.6v-2.6h1.3v-0.5h-1.3v-1h-0.4l-0.3,0.9L88,32.5v0.3h0.6v2.6c0,0.9,0.4,1.4,1.3,1.4c0.1,0,0.2,0,0.4,0
			c0.1,0,0.2-0.1,0.3-0.1v-0.5c-0.1,0-0.2,0-0.3,0.1C90.2,36.3,90.1,36.3,90,36.3z M83.5,32.3c-0.3,0-0.5,0-0.8,0.1
			s-0.5,0.2-0.7,0.3l0.2,0.5c0.5-0.2,0.9-0.3,1.3-0.3c0.3,0,0.6,0.1,0.7,0.2s0.2,0.4,0.2,0.8v0.3l-0.8,0c-1.4,0-2.1,0.5-2.1,1.4
			c0,0.4,0.1,0.7,0.4,1c0.2,0.2,0.6,0.3,1,0.3c0.3,0,0.6,0,0.8-0.1c0.2-0.1,0.4-0.3,0.7-0.6h0l0.1,0.6h0.5v-3c0-0.5-0.1-0.9-0.4-1.1
			S84.1,32.3,83.5,32.3z M84.4,35c0,0.4-0.1,0.7-0.4,1c-0.2,0.2-0.6,0.3-1,0.3c-0.3,0-0.5-0.1-0.6-0.2s-0.2-0.3-0.2-0.6
			c0-0.3,0.1-0.5,0.4-0.7c0.2-0.1,0.6-0.2,1.2-0.2l0.7,0V35z M79.5,35.6c0,0.2-0.1,0.4-0.1,0.4h0c-0.1-0.3-0.2-0.7-0.3-1.2l-0.8-2.5
			h-0.7l-0.8,2.5c0,0.1-0.1,0.3-0.2,0.6c-0.1,0.2-0.1,0.4-0.1,0.6h0c0-0.2-0.1-0.6-0.3-1.2c-0.1-0.6-0.4-1.4-0.7-2.5h-0.7l1.2,4.4
			h0.8l0.8-2.6c0.1-0.3,0.2-0.6,0.3-1.1h0c0.1,0.6,0.2,0.9,0.3,1.1l0.8,2.6h0.8l1.2-4.4h-0.7C79.8,34.3,79.6,35.4,79.5,35.6z
			 M57.1,34.7c0,0.6-0.1,1-0.3,1.2s-0.6,0.4-1,0.4c-0.4,0-0.6-0.1-0.8-0.3s-0.2-0.4-0.2-0.8v-2.9h-0.7v2.9c0,0.6,0.1,1,0.4,1.2
			c0.3,0.3,0.7,0.4,1.2,0.4c0.3,0,0.6-0.1,0.8-0.2c0.2-0.1,0.4-0.3,0.6-0.5h0l0.1,0.6h0.6v-4.4h-0.7V34.7z M55.4,31.4
			c0.1-0.1,0.1-0.2,0.1-0.3c0-0.1,0-0.2-0.1-0.3c-0.1-0.1-0.2-0.1-0.3-0.1c-0.1,0-0.2,0-0.3,0.1c-0.1,0.1-0.1,0.2-0.1,0.3
			c0,0.1,0,0.2,0.1,0.3s0.2,0.1,0.3,0.1C55.3,31.5,55.4,31.5,55.4,31.4z M156.2,32.3c-0.6,0-1.1,0.2-1.4,0.6c-0.4,0.4-0.5,1-0.5,1.7
			c0,0.7,0.2,1.3,0.6,1.7s0.9,0.6,1.6,0.6c0.3,0,0.6,0,0.8-0.1c0.2,0,0.4-0.1,0.7-0.2V36c-0.5,0.2-0.9,0.3-1.4,0.3
			c-0.5,0-0.8-0.1-1.1-0.4c-0.2-0.3-0.4-0.7-0.4-1.2h3.1v-0.4c0-0.6-0.2-1.1-0.5-1.4S156.8,32.3,156.2,32.3z M155,34.1
			c0-0.4,0.2-0.7,0.4-1c0.2-0.2,0.5-0.3,0.9-0.3c0.4,0,0.6,0.1,0.8,0.3c0.2,0.2,0.3,0.5,0.3,1H155z M196.1,24.3v-1.8
			c-0.5,0.2-1.1,0.3-1.6,0.4c-0.5,0.1-1,0.2-1.6,0.2c-1.2,0-2.2-0.4-2.9-1.2s-1-2-1-3.5c0-1.5,0.3-2.7,1-3.5
			c0.7-0.8,1.6-1.3,2.8-1.3c0.5,0,1,0.1,1.5,0.2c0.5,0.2,0.9,0.3,1.4,0.5l0.7-1.7c-1.1-0.5-2.3-0.8-3.6-0.8c-1.2,0-2.3,0.3-3.2,0.8
			c-0.9,0.5-1.6,1.3-2.1,2.3c-0.5,1-0.7,2.1-0.7,3.5c0,2.1,0.5,3.7,1.5,4.8c1,1.1,2.4,1.7,4.3,1.7C194,24.9,195.1,24.7,196.1,24.3z
			 M188.1,30.9h-0.8l-2.7,2.9v-2.9h-0.7v5.9h0.7v-2.3l0.6-0.5l2.2,2.9h0.8l-2.5-3.3L188.1,30.9z M188.9,36.8h0.7v-4.4h-0.7V36.8z
			 M189.2,30.7c-0.1,0-0.2,0-0.3,0.1c-0.1,0.1-0.1,0.2-0.1,0.3c0,0.2,0,0.3,0.1,0.3c0.1,0.1,0.2,0.1,0.3,0.1c0.1,0,0.2,0,0.3-0.1
			s0.1-0.2,0.1-0.3c0-0.2,0-0.3-0.1-0.3C189.4,30.7,189.3,30.7,189.2,30.7z M184.7,20.2V12h-2.1v8c0,2.1-1,3.1-2.9,3.1
			c-1,0-1.8-0.2-2.2-0.7c-0.5-0.5-0.7-1.3-0.7-2.3v-8h-2.1v8.2c0,1.5,0.4,2.6,1.3,3.4c0.9,0.8,2.1,1.3,3.7,1.3c1.1,0,2-0.2,2.7-0.6
			c0.8-0.4,1.3-0.9,1.7-1.6C184.5,22,184.7,21.2,184.7,20.2z M173.6,32.3c-0.3,0-0.6,0.1-0.8,0.2s-0.4,0.3-0.6,0.5h0l-0.1-0.6h-0.5
			v4.4h0.7v-2.3c0-0.6,0.1-1,0.3-1.2c0.2-0.3,0.6-0.4,1-0.4c0.4,0,0.6,0.1,0.8,0.3s0.2,0.4,0.2,0.8v2.9h0.7v-2.9
			c0-0.6-0.1-1-0.4-1.2C174.5,32.4,174.1,32.3,173.6,32.3z M179.5,32.3l0,0.3l0,0.3h-0.1c-0.3-0.4-0.8-0.7-1.4-0.7
			c-0.6,0-1,0.2-1.4,0.6s-0.5,1-0.5,1.7s0.2,1.3,0.5,1.7s0.8,0.6,1.4,0.6c0.6,0,1.1-0.2,1.4-0.7h0l0.1,0.6h0.5v-6.3h-0.7V32.3z
			 M179.5,34.7c0,0.6-0.1,1-0.3,1.2c-0.2,0.2-0.5,0.4-1,0.4c-0.4,0-0.7-0.1-0.9-0.4c-0.2-0.3-0.3-0.7-0.3-1.3c0-0.6,0.1-1,0.3-1.3
			c0.2-0.3,0.5-0.5,0.9-0.5c0.5,0,0.8,0.1,1,0.4c0.2,0.3,0.3,0.7,0.3,1.3V34.7z M206.4,17.2h-5.9V12h-2.1v12.7h2.1V19h5.9v5.7h2.1
			V12h-2.1V17.2z M193.1,32.3c-0.3,0-0.6,0.1-0.8,0.2s-0.4,0.3-0.6,0.5h0l-0.1-0.6H191v4.4h0.7v-2.3c0-0.6,0.1-1,0.3-1.2
			c0.2-0.3,0.6-0.4,1-0.4c0.4,0,0.6,0.1,0.8,0.3s0.2,0.4,0.2,0.8v2.9h0.7v-2.9c0-0.6-0.1-1-0.4-1.2C194,32.4,193.6,32.3,193.1,32.3z
			 M210.1,12v1.8h3.7v10.9h2.1V13.8h3.7V12H210.1z M207,32.5c-0.2,0.2-0.4,0.4-0.6,0.7h0l-0.1-0.8h-0.6v4.4h0.7v-2.4
			c0-0.4,0.1-0.8,0.4-1.1c0.3-0.3,0.6-0.4,0.9-0.4c0.1,0,0.3,0,0.5,0.1l0.1-0.6c-0.2,0-0.3,0-0.5,0C207.5,32.3,207.3,32.3,207,32.5z
			 M169.4,34.7c0,0.6-0.1,1-0.3,1.2c-0.2,0.3-0.6,0.4-1,0.4c-0.4,0-0.6-0.1-0.8-0.3c-0.2-0.2-0.2-0.4-0.2-0.8v-2.9h-0.7v2.9
			c0,0.6,0.1,1,0.4,1.2c0.3,0.3,0.7,0.4,1.2,0.4c0.3,0,0.6-0.1,0.8-0.2c0.2-0.1,0.4-0.3,0.6-0.5h0l0.1,0.6h0.6v-4.4h-0.7V34.7z
			 M199,32.3l0,0.3l0,0.3H199c-0.3-0.4-0.8-0.7-1.4-0.7c-0.6,0-1,0.2-1.4,0.6s-0.5,1-0.5,1.7s0.2,1.3,0.5,1.7s0.8,0.6,1.4,0.6
			c0.6,0,1.1-0.2,1.4-0.7h0l0.1,0.6h0.5v-6.3H199V32.3z M199,34.7c0,0.6-0.1,1-0.3,1.2c-0.2,0.2-0.5,0.4-1,0.4
			c-0.4,0-0.7-0.1-0.9-0.4c-0.2-0.3-0.3-0.7-0.3-1.3c0-0.6,0.1-1,0.3-1.3c0.2-0.3,0.5-0.5,0.9-0.5c0.5,0,0.8,0.1,1,0.4
			c0.2,0.3,0.3,0.7,0.3,1.3V34.7z M202.8,32.3c-0.6,0-1.1,0.2-1.4,0.6c-0.4,0.4-0.5,1-0.5,1.7c0,0.7,0.2,1.3,0.6,1.7
			s0.9,0.6,1.6,0.6c0.3,0,0.6,0,0.8-0.1c0.2,0,0.4-0.1,0.7-0.2V36c-0.5,0.2-0.9,0.3-1.4,0.3c-0.5,0-0.8-0.1-1.1-0.4
			c-0.2-0.3-0.4-0.7-0.4-1.2h3.1v-0.4c0-0.6-0.2-1.1-0.5-1.4S203.4,32.3,202.8,32.3z M201.6,34.1c0-0.4,0.2-0.7,0.4-1
			c0.2-0.2,0.5-0.3,0.9-0.3c0.4,0,0.6,0.1,0.8,0.3c0.2,0.2,0.3,0.5,0.3,1H201.6z M161.3,32.3c-0.3,0-0.6,0.1-0.8,0.2
			s-0.4,0.3-0.6,0.5h0l-0.1-0.6h-0.5v4.4h0.7v-2.3c0-0.6,0.1-1,0.3-1.2c0.2-0.3,0.6-0.4,1-0.4c0.4,0,0.6,0.1,0.8,0.3
			c0.2,0.2,0.2,0.4,0.2,0.8v2.9h0.7v-2.9c0-0.6-0.1-1-0.4-1.2C162.2,32.4,161.8,32.3,161.3,32.3z M117.7,24.7h7.2V23h-5.1v-4h4.8
			v-1.7h-4.8v-3.5h5.1V12h-7.2V24.7z M128.3,32.3l0,0.3l0,0.3h-0.1c-0.3-0.4-0.8-0.7-1.4-0.7c-0.6,0-1,0.2-1.4,0.6s-0.5,1-0.5,1.7
			s0.2,1.3,0.5,1.7s0.8,0.6,1.4,0.6c0.6,0,1.1-0.2,1.4-0.7h0l0.1,0.6h0.5v-6.3h-0.7V32.3z M128.3,34.7c0,0.6-0.1,1-0.3,1.2
			c-0.2,0.2-0.5,0.4-1,0.4c-0.4,0-0.7-0.1-0.9-0.4c-0.2-0.3-0.3-0.7-0.3-1.3c0-0.6,0.1-1,0.3-1.3c0.2-0.3,0.5-0.5,0.9-0.5
			c0.5,0,0.8,0.1,1,0.4c0.2,0.3,0.3,0.7,0.3,1.3V34.7z M132.1,32.3c-0.6,0-1.1,0.2-1.4,0.6c-0.4,0.4-0.5,1-0.5,1.7
			c0,0.7,0.2,1.3,0.6,1.7c0.4,0.4,0.9,0.6,1.6,0.6c0.3,0,0.6,0,0.8-0.1c0.2,0,0.4-0.1,0.7-0.2V36c-0.5,0.2-0.9,0.3-1.4,0.3
			c-0.5,0-0.8-0.1-1.1-0.4c-0.2-0.3-0.4-0.7-0.4-1.2h3.1v-0.4c0-0.6-0.2-1.1-0.5-1.4S132.6,32.3,132.1,32.3z M130.8,34.1
			c0-0.4,0.2-0.7,0.4-1c0.2-0.2,0.5-0.3,0.9-0.3c0.4,0,0.6,0.1,0.8,0.3c0.2,0.2,0.3,0.5,0.3,1H130.8z M114,15.7
			c0-1.2-0.4-2.2-1.2-2.8c-0.8-0.6-2-0.9-3.6-0.9h-3.6v12.7h2.1v-5.1h2l3,5.1h2.4l-3.6-5.6C113.2,18.4,114,17.3,114,15.7z
			 M109.1,17.9h-1.4v-4.2h1.4c0.9,0,1.6,0.2,2.1,0.5c0.5,0.3,0.7,0.8,0.7,1.5c0,0.7-0.2,1.2-0.7,1.6
			C110.8,17.8,110.1,17.9,109.1,17.9z M137.3,36.8h0.7v-2.5h2.5v-0.6H138v-2.2h2.6v-0.6h-3.3V36.8z M172.9,22.9h-5.4V12h-2.1v12.7
			h7.5V22.9z M122.3,32.3c-0.3,0-0.6,0.1-0.8,0.2s-0.4,0.3-0.6,0.5h0l-0.1-0.6h-0.5v4.4h0.7v-2.3c0-0.6,0.1-1,0.3-1.2
			c0.2-0.3,0.6-0.4,1-0.4c0.4,0,0.6,0.1,0.8,0.3s0.2,0.4,0.2,0.8v2.9h0.7v-2.9c0-0.6-0.1-1-0.4-1.2
			C123.3,32.4,122.8,32.3,122.3,32.3z M117.3,32.3c-0.6,0-1.1,0.2-1.4,0.6c-0.4,0.4-0.5,1-0.5,1.7c0,0.7,0.2,1.3,0.6,1.7
			s0.9,0.6,1.6,0.6c0.3,0,0.6,0,0.8-0.1c0.2,0,0.4-0.1,0.7-0.2V36c-0.5,0.2-0.9,0.3-1.4,0.3c-0.5,0-0.8-0.1-1.1-0.4
			c-0.2-0.3-0.4-0.7-0.4-1.2h3.1v-0.4c0-0.6-0.2-1.1-0.5-1.4S117.8,32.3,117.3,32.3z M116,34.1c0-0.4,0.2-0.7,0.4-1
			c0.2-0.2,0.5-0.3,0.9-0.3c0.4,0,0.6,0.1,0.8,0.3c0.2,0.2,0.3,0.5,0.3,1H116z M113.5,32.3l0,0.3l0,0.3h-0.1
			c-0.3-0.4-0.8-0.7-1.4-0.7c-0.6,0-1,0.2-1.4,0.6c-0.3,0.4-0.5,1-0.5,1.7s0.2,1.3,0.5,1.7s0.8,0.6,1.4,0.6c0.6,0,1.1-0.2,1.4-0.7h0
			l0.1,0.6h0.5v-6.3h-0.7V32.3z M113.5,34.7c0,0.6-0.1,1-0.3,1.2c-0.2,0.2-0.5,0.4-1,0.4c-0.4,0-0.7-0.1-0.9-0.4
			c-0.2-0.3-0.3-0.7-0.3-1.3c0-0.6,0.1-1,0.3-1.3c0.2-0.3,0.5-0.5,0.9-0.5c0.5,0,0.8,0.1,1,0.4c0.2,0.3,0.3,0.7,0.3,1.3V34.7z
			 M151.4,20c0,2.1-1,3.1-2.9,3.1c-1,0-1.8-0.2-2.2-0.7c-0.5-0.5-0.7-1.3-0.7-2.3v-8h-2.1v8.2c0,1.5,0.4,2.6,1.3,3.4
			c0.9,0.8,2.1,1.3,3.7,1.3c1.1,0,2-0.2,2.7-0.6c0.8-0.4,1.3-0.9,1.7-1.6c0.4-0.7,0.6-1.5,0.6-2.5V12h-2.1V20z M156.4,24.7h2.1v-5.2
			h4.8v-1.8h-4.8v-4h5.1V12h-7.2V24.7z M152.4,34.7c0,0.6-0.1,1-0.3,1.2c-0.2,0.3-0.6,0.4-1,0.4c-0.4,0-0.6-0.1-0.8-0.3
			c-0.2-0.2-0.2-0.4-0.2-0.8v-2.9h-0.7v2.9c0,0.6,0.1,1,0.4,1.2c0.3,0.3,0.7,0.4,1.2,0.4c0.3,0,0.6-0.1,0.8-0.2
			c0.2-0.1,0.4-0.3,0.6-0.5h0l0.1,0.6h0.6v-4.4h-0.7V34.7z M142.7,32.5c-0.2,0.2-0.4,0.4-0.6,0.7h0l-0.1-0.8h-0.6v4.4h0.7v-2.4
			c0-0.4,0.1-0.8,0.4-1.1c0.3-0.3,0.6-0.4,0.9-0.4c0.1,0,0.3,0,0.5,0.1l0.1-0.6c-0.2,0-0.3,0-0.5,0
			C143.2,32.3,142.9,32.3,142.7,32.5z M146.5,32.3c-0.3,0-0.5,0-0.8,0.1c-0.3,0.1-0.5,0.2-0.7,0.3l0.2,0.5c0.5-0.2,0.9-0.3,1.3-0.3
			c0.3,0,0.6,0.1,0.7,0.2c0.1,0.2,0.2,0.4,0.2,0.8v0.3l-0.8,0c-1.4,0-2.1,0.5-2.1,1.4c0,0.4,0.1,0.7,0.4,1c0.2,0.2,0.6,0.3,1,0.3
			c0.3,0,0.6,0,0.8-0.1c0.2-0.1,0.4-0.3,0.7-0.6h0l0.1,0.6h0.5v-3c0-0.5-0.1-0.9-0.4-1.1S147,32.3,146.5,32.3z M147.4,35
			c0,0.4-0.1,0.7-0.4,1c-0.2,0.2-0.6,0.3-1,0.3c-0.3,0-0.5-0.1-0.6-0.2c-0.1-0.1-0.2-0.3-0.2-0.6c0-0.3,0.1-0.5,0.4-0.7
			c0.2-0.1,0.6-0.2,1.2-0.2l0.7,0V35z"/>
	</g>
</g>
</svg>
